<?xml version="1.0" encoding="iso-8859-1"?>
<!-- Generator: Adobe Illustrator 19.0.1, SVG Export Plug-In . SVG Version: 6.00 Build 0)  -->
<svg version="1.1" xmlns="http://www.w3.org/2000/svg" xmlns:xlink="http://www.w3.org/1999/xlink" x="0px" y="0px"
	 viewBox="0 0 128 128" style="enable-background:new 0 0 128 128;" xml:space="preserve">
<g id="_x31_">
	<path id="icon" style="fill-rule:evenodd;clip-rule:evenodd;fill:#191919;" d="M81.731,55.744
		c2.789,19.979-5.623,49.947-40.04,49.947C18.666,105.691,0,87.025,0,64c0-23.025,18.666-41.691,41.691-41.691
		c10.804,0,20.648,4.11,28.055,10.851c-8.725,8.24-8.438,8.728-11.868,12.158c-4.284-3.543-8.955-6.085-16.187-6.085
		c-13.678,0-24.354,11.089-24.354,24.767c0,13.678,10.676,24.767,24.354,24.767c13.516,0,19.008-5.829,22.54-16.533
		c-6.522,0-22.54,0.021-22.54,0.021V55.744C41.691,55.744,73.584,55.744,81.731,55.744z M88.373,66.889V56.57h14.86V42.122h10.32
		V56.57H128v10.32h-14.447v14.86h-10.32v-14.86H88.373z"/>
</g>
<g id="Layer_1">
</g>
</svg>
